<svg width="2240" height="528" viewBox="0 0 2240 528" fill="none" xmlns="http://www.w3.org/2000/svg">
<rect y="5" width="517.887" height="517.887" rx="33.2927" fill="#080808"/>
<g filter="url(#filter0_di_125_267)">
<path d="M292.379 459.906C269.962 448.51 252.067 437.961 228.708 423.456C239.634 414.037 249.241 406.596 261.203 399.815L386.001 329.081L385.624 257.31L163.908 384.651C151.381 380.601 137.253 371.841 127.551 363.27V257.216L65.9532 292.065L65.1055 215.303L127.551 180.265L127.74 107.082L194.142 67.1465L197.532 139.482L263.84 100.96C282.583 90.0339 297.088 86.9258 316.396 99.1701L356.332 124.695L196.214 217.375L196.873 289.145L419.343 160.486L452.12 181.395L451.837 367.791L292.379 460.001V459.906Z" fill="white"/>
</g>
<path d="M647.488 195.715V333.106C647.488 338.335 648.65 342.111 650.974 344.434C653.491 346.565 657.558 347.63 663.173 347.63H681.763L686.411 376.676C682.925 377.838 678.665 378.806 673.63 379.581C668.595 380.549 663.561 381.227 658.526 381.614C653.491 382.195 649.231 382.486 645.745 382.486C632.771 382.486 622.605 379 615.246 372.029C608.081 365.058 604.499 355.279 604.499 342.692V195.715H647.488ZM687.573 235.509V263.685H579.228V236.962L607.113 235.509H687.573ZM744.259 235.509L749.487 263.975L753.554 267.751V379H710.565V235.509H744.259ZM814.262 231.733L810.195 271.527H798.286C791.508 271.527 784.44 272.495 777.082 274.432C769.723 276.368 760.428 279.273 749.197 283.146L746.292 259.037C756.362 250.129 766.528 243.352 776.791 238.704C787.055 234.057 797.027 231.733 806.709 231.733H814.262ZM909.485 231.733C921.491 231.733 931.657 233.379 939.984 236.671C948.311 239.769 954.604 245.192 958.864 252.937C963.318 260.489 965.545 270.946 965.545 284.308V379H931.27L925.17 347.92L922.265 343.563V284.017C922.265 277.24 920.619 272.302 917.328 269.203C914.229 266.105 908.226 264.556 899.319 264.556C891.96 264.556 882.762 264.846 871.724 265.427C860.686 265.815 849.358 266.396 837.74 267.17L833.673 238.704C840.644 237.349 848.68 236.187 857.782 235.219C866.883 234.251 875.984 233.476 885.086 232.895C894.187 232.12 902.32 231.733 909.485 231.733ZM947.827 290.698L947.536 314.807L883.633 315.097C878.405 315.097 874.629 316.356 872.305 318.873C870.175 321.391 869.11 324.779 869.11 329.04V336.011C869.11 340.852 870.465 344.628 873.177 347.339C875.888 349.856 880.245 351.115 886.248 351.115C891.282 351.115 896.704 350.05 902.514 347.92C908.517 345.79 914.423 342.788 920.232 338.916C926.042 335.043 931.173 330.492 935.627 325.264V343.853C933.884 346.758 931.27 350.437 927.784 354.891C924.492 359.151 920.232 363.412 915.004 367.672C909.775 371.738 903.676 375.224 896.704 378.129C889.733 381.033 881.794 382.486 872.886 382.486C864.172 382.486 856.329 380.936 849.358 377.838C842.387 374.74 836.868 370.189 832.802 364.186C828.735 358.183 826.702 350.728 826.702 341.82V327.006C826.702 315.581 830.575 306.674 838.32 300.283C846.066 293.893 856.717 290.698 870.272 290.698H947.827ZM1142.85 235.509L1095.5 368.834C1094.34 371.932 1092.5 374.449 1089.98 376.386C1087.66 378.129 1084.85 379 1081.56 379H1044.09C1040.8 379 1037.89 378.129 1035.38 376.386C1033.05 374.449 1031.31 371.932 1030.15 368.834L982.801 235.509H1028.4L1054.84 325.264C1056 329.524 1057.06 333.881 1058.03 338.335C1059 342.788 1059.97 347.049 1060.94 351.115H1064.71C1065.87 346.855 1066.94 342.595 1067.91 338.335C1069.07 333.881 1070.23 329.524 1071.39 325.264L1097.24 235.509H1142.85ZM1228.13 231.733C1252.34 231.733 1269.67 235.897 1280.13 244.223C1290.78 252.356 1296.1 264.556 1296.1 280.822C1296.3 293.99 1293.01 303.866 1286.23 310.45C1279.45 316.84 1267.73 320.035 1251.08 320.035H1170.91V295.926H1239.17C1245.76 295.926 1249.92 294.571 1251.66 291.86C1253.6 288.955 1254.57 284.985 1254.57 279.951C1254.37 273.173 1252.34 268.526 1248.47 266.008C1244.79 263.297 1238.49 261.942 1229.59 261.942C1221.65 261.942 1215.45 263.007 1211 265.137C1206.54 267.267 1203.44 271.334 1201.7 277.337C1199.96 283.34 1199.09 292.054 1199.09 303.479C1199.09 315.485 1200.15 324.779 1202.28 331.363C1204.41 337.754 1208 342.208 1213.03 344.725C1218.26 347.242 1225.42 348.501 1234.52 348.501C1241.11 348.501 1249.24 348.307 1258.92 347.92C1268.8 347.339 1278.68 346.468 1288.55 345.306L1292.62 371.738C1287 374.449 1280.61 376.579 1273.45 378.129C1266.28 379.678 1258.92 380.743 1251.37 381.324C1243.82 382.098 1236.56 382.486 1229.59 382.486C1211.38 382.486 1196.67 379.871 1185.44 374.643C1174.4 369.221 1166.36 360.991 1161.33 349.953C1156.49 338.916 1154.06 324.779 1154.06 307.545C1154.06 288.762 1156.58 273.851 1161.62 262.813C1166.65 251.775 1174.59 243.836 1185.44 238.995C1196.28 234.154 1210.51 231.733 1228.13 231.733ZM1367.11 175.673V333.106C1367.11 337.947 1368.56 341.627 1371.47 344.144C1374.37 346.468 1378.63 347.63 1384.25 347.63H1395.87L1400.8 376.676C1398.48 377.838 1395.19 378.806 1390.93 379.581C1386.67 380.549 1382.31 381.227 1377.86 381.614C1373.4 382.195 1369.63 382.486 1366.53 382.486C1353.55 382.486 1343.29 379.097 1335.74 372.319C1328.19 365.542 1324.41 356.053 1324.41 343.853V175.673H1367.11ZM1530.2 231.733C1537.17 231.733 1544.73 232.024 1552.86 232.605C1560.99 232.992 1568.93 233.573 1576.68 234.347C1584.42 235.122 1591.3 236.09 1597.3 237.252L1594.39 263.975C1585.1 263.781 1575.71 263.685 1566.22 263.685C1556.92 263.491 1547.82 263.394 1538.92 263.394C1531.36 263.2 1525.55 263.297 1521.49 263.685C1517.42 264.072 1514.52 265.04 1512.77 266.589C1511.22 267.945 1510.45 270.462 1510.45 274.141C1510.45 278.402 1511.9 281.306 1514.81 282.855C1517.71 284.211 1522.55 285.76 1529.33 287.503L1566.8 296.507C1578.81 299.606 1587.71 304.253 1593.52 310.45C1599.33 316.453 1602.24 325.554 1602.24 337.754C1602.24 349.76 1600.01 358.958 1595.56 365.348C1591.1 371.738 1584.03 376.192 1574.35 378.71C1564.67 381.033 1552.18 382.195 1536.88 382.195C1530.88 382.195 1521.97 381.905 1510.16 381.324C1498.35 380.743 1485.37 379.29 1471.24 376.967L1474.14 350.244C1477.63 350.437 1482.08 350.631 1487.5 350.825C1492.93 350.825 1498.83 350.825 1505.22 350.825C1511.61 350.825 1518 350.825 1524.39 350.825C1534.27 350.825 1541.82 350.631 1547.05 350.244C1552.28 349.663 1555.86 348.501 1557.8 346.758C1559.73 345.015 1560.7 342.401 1560.7 338.916C1560.7 334.655 1559.05 331.751 1555.76 330.202C1552.47 328.652 1547.24 327.006 1540.08 325.264L1503.77 316.259C1494.67 313.742 1487.6 310.547 1482.57 306.674C1477.53 302.801 1473.95 298.057 1471.82 292.441C1469.88 286.825 1468.91 280.144 1468.91 272.399C1468.91 262.523 1470.85 254.68 1474.72 248.871C1478.79 242.868 1485.28 238.511 1494.18 235.8C1503.29 233.089 1515.29 231.733 1530.2 231.733ZM1685.96 195.715V333.106C1685.96 338.335 1687.13 342.111 1689.45 344.434C1691.97 346.565 1696.03 347.63 1701.65 347.63H1720.24L1724.89 376.676C1721.4 377.838 1717.14 378.806 1712.11 379.581C1707.07 380.549 1702.04 381.227 1697 381.614C1691.97 382.195 1687.71 382.486 1684.22 382.486C1671.25 382.486 1661.08 379 1653.72 372.029C1646.56 365.058 1642.98 355.279 1642.98 342.692V195.715H1685.96ZM1726.05 235.509V263.685H1617.7V236.962L1645.59 235.509H1726.05ZM1817.3 231.733C1835.31 231.733 1849.74 234.251 1860.58 239.285C1871.42 244.126 1879.17 252.066 1883.82 263.104C1888.66 274.141 1891.08 288.955 1891.08 307.545C1891.08 325.748 1888.66 340.368 1883.82 351.406C1879.17 362.443 1871.42 370.383 1860.58 375.224C1849.74 380.065 1835.31 382.486 1817.3 382.486C1799.49 382.486 1785.06 380.065 1774.02 375.224C1763.18 370.383 1755.33 362.443 1750.49 351.406C1745.65 340.368 1743.23 325.748 1743.23 307.545C1743.23 288.955 1745.65 274.141 1750.49 263.104C1755.33 252.066 1763.18 244.126 1774.02 239.285C1785.06 234.251 1799.49 231.733 1817.3 231.733ZM1817.3 263.104C1809.94 263.104 1804.13 264.362 1799.87 266.88C1795.61 269.397 1792.61 273.851 1790.87 280.241C1789.13 286.631 1788.25 295.733 1788.25 307.545C1788.25 319.164 1789.13 328.168 1790.87 334.559C1792.61 340.949 1795.61 345.403 1799.87 347.92C1804.13 350.244 1809.94 351.406 1817.3 351.406C1824.66 351.406 1830.47 350.244 1834.73 347.92C1838.99 345.403 1841.99 340.949 1843.73 334.559C1845.48 328.168 1846.35 319.164 1846.35 307.545C1846.35 295.733 1845.48 286.631 1843.73 280.241C1841.99 273.851 1838.99 269.397 1834.73 266.88C1830.47 264.362 1824.66 263.104 1817.3 263.104ZM1954.07 235.509L1959.29 263.975L1963.36 267.751V379H1920.37V235.509H1954.07ZM2024.07 231.733L2020 271.527H2008.09C2001.31 271.527 1994.25 272.495 1986.89 274.432C1979.53 276.368 1970.24 279.273 1959 283.146L1956.1 259.037C1966.17 250.129 1976.33 243.352 1986.6 238.704C1996.86 234.057 2006.83 231.733 2016.52 231.733H2024.07ZM2188.69 235.509L2137.28 380.743C2134.96 387.908 2131.66 395.073 2127.4 402.237C2123.34 409.596 2118.11 416.18 2111.72 421.989C2105.52 427.798 2097.97 432.155 2089.06 435.06C2080.35 438.158 2069.99 438.933 2057.98 437.384L2054.79 412.985C2066.6 409.886 2075.8 405.723 2082.38 400.495C2088.97 395.266 2094.1 388.392 2097.78 379.871L2106.78 359.829C2108.52 355.569 2110.17 350.437 2111.72 344.434C2113.46 338.238 2114.91 332.913 2116.08 328.459L2142.8 235.509H2188.69ZM2074.83 235.509L2102.13 328.459C2102.91 332.138 2103.68 335.817 2104.46 339.496C2105.23 343.176 2105.91 346.855 2106.49 350.534H2114.33L2100.68 379H2090.22C2086.93 379 2084.03 378.032 2081.51 376.095C2078.99 374.159 2077.25 371.642 2076.28 368.543L2028.94 235.509H2074.83Z" fill="black"/>
<defs>
<filter id="filter0_di_125_267" x="62.1461" y="67.1465" width="392.933" height="398.773" filterUnits="userSpaceOnUse" color-interpolation-filters="sRGB">
<feFlood flood-opacity="0" result="BackgroundImageFix"/>
<feColorMatrix in="SourceAlpha" type="matrix" values="0 0 0 0 0 0 0 0 0 0 0 0 0 0 0 0 0 0 127 0" result="hardAlpha"/>
<feOffset dy="2.95935"/>
<feGaussianBlur stdDeviation="1.47968"/>
<feComposite in2="hardAlpha" operator="out"/>
<feColorMatrix type="matrix" values="0 0 0 0 0 0 0 0 0 0 0 0 0 0 0 0 0 0 0.25 0"/>
<feBlend mode="normal" in2="BackgroundImageFix" result="effect1_dropShadow_125_267"/>
<feBlend mode="normal" in="SourceGraphic" in2="effect1_dropShadow_125_267" result="shape"/>
<feColorMatrix in="SourceAlpha" type="matrix" values="0 0 0 0 0 0 0 0 0 0 0 0 0 0 0 0 0 0 127 0" result="hardAlpha"/>
<feOffset dy="2.95935"/>
<feGaussianBlur stdDeviation="1.47968"/>
<feComposite in2="hardAlpha" operator="arithmetic" k2="-1" k3="1"/>
<feColorMatrix type="matrix" values="0 0 0 0 0 0 0 0 0 0 0 0 0 0 0 0 0 0 0.25 0"/>
<feBlend mode="normal" in2="shape" result="effect2_innerShadow_125_267"/>
</filter>
</defs>
</svg>
