<svg width="1518" height="319" viewBox="0 0 1518 319" fill="none" xmlns="http://www.w3.org/2000/svg">
<path d="M0.000148773 158.947C0.000148773 127.786 4.14659 99.0957 12.4395 72.8768C20.8161 46.6579 33.5905 22.3656 50.7627 -4.93607e-05H101.902C95.3683 8.29283 89.2952 18.4286 83.6829 30.4072C78.0705 42.302 73.1702 55.3696 68.9819 69.6099C64.7935 83.8502 61.5266 98.5931 59.1812 113.839C56.8357 129 55.663 144.036 55.663 158.947C55.663 178.8 57.6734 198.862 61.6942 219.133C65.7987 239.321 71.3273 258.085 78.28 275.424C85.3163 292.764 93.1904 306.962 101.902 318.019H50.7627C33.5905 295.654 20.8161 271.362 12.4395 245.143C4.14659 218.924 0.000148773 190.192 0.000148773 158.947ZM132.969 262.105V69.1073H184.862V102.781H186.873C190.391 90.8028 196.296 81.7561 204.589 75.6411C212.882 69.4424 222.432 66.343 233.238 66.343C235.918 66.343 238.808 66.5106 241.907 66.8456C245.007 67.1807 247.729 67.6414 250.075 68.2278V115.723C247.562 114.969 244.085 114.299 239.646 113.713C235.206 113.127 231.143 112.833 227.458 112.833C219.584 112.833 212.547 114.551 206.348 117.985C200.234 121.336 195.375 126.027 191.773 132.058C188.255 138.089 186.496 145.042 186.496 152.916V262.105H132.969ZM356.72 265.875C336.867 265.875 319.779 261.854 305.455 253.812C291.214 245.687 280.241 234.211 272.534 219.384C264.828 204.474 260.975 186.841 260.975 166.486C260.975 146.633 264.828 129.21 272.534 114.216C280.241 99.2214 291.089 87.5359 305.078 79.1593C319.151 70.7826 335.653 66.5943 354.584 66.5943C367.316 66.5943 379.169 68.6466 390.143 72.7512C401.2 76.772 410.833 82.845 419.042 90.9704C427.335 99.0957 433.785 109.315 438.392 121.629C442.999 133.859 445.303 148.183 445.303 164.601V179.302H282.335V146.131H394.917C394.917 138.424 393.242 131.597 389.891 125.65C386.541 119.702 381.892 115.053 375.944 111.703C370.081 108.268 363.254 106.551 355.463 106.551C347.338 106.551 340.134 108.436 333.852 112.205C327.653 115.891 322.794 120.875 319.276 127.158C315.758 133.356 313.957 140.267 313.873 147.89V179.428C313.873 188.977 315.632 197.228 319.151 204.181C322.753 211.133 327.82 216.494 334.354 220.264C340.888 224.033 348.636 225.918 357.599 225.918C363.547 225.918 368.992 225.081 373.934 223.405C378.876 221.73 383.106 219.217 386.624 215.866C390.143 212.516 392.823 208.411 394.666 203.553L444.172 206.819C441.659 218.714 436.507 229.101 428.717 237.981C421.011 246.776 411.042 253.645 398.812 258.587C386.666 263.446 372.635 265.875 356.72 265.875ZM570.45 158.947C570.45 190.192 566.262 218.924 557.885 245.143C549.592 271.362 536.86 295.654 519.688 318.019H468.548C475.082 309.727 481.155 299.591 486.767 287.612C492.38 275.634 497.28 262.566 501.468 248.41C505.657 234.169 508.924 219.426 511.269 204.181C513.614 188.935 514.787 173.857 514.787 158.947C514.787 139.094 512.735 119.074 508.63 98.8863C504.61 78.6148 499.081 59.8511 492.045 42.5952C485.092 25.2555 477.26 11.0571 468.548 -4.93607e-05H519.688C536.86 22.3656 549.592 46.6579 557.885 72.8768C566.262 99.0957 570.45 127.786 570.45 158.947ZM853.068 94.8655H798.033C797.028 87.7454 794.976 81.421 791.876 75.8924C788.777 70.28 784.798 65.5054 779.94 61.5683C775.081 57.6313 769.469 54.6157 763.103 52.5215C756.82 50.4274 749.993 49.3803 742.622 49.3803C729.303 49.3803 717.701 52.6891 707.817 59.3066C697.932 65.8404 690.268 75.3898 684.823 87.9548C679.378 100.436 676.656 115.598 676.656 133.44C676.656 151.785 679.378 167.198 684.823 179.679C690.351 192.16 698.058 201.584 707.942 207.95C717.827 214.317 729.261 217.5 742.245 217.5C749.532 217.5 756.276 216.536 762.474 214.61C768.757 212.683 774.327 209.877 779.186 206.191C784.044 202.422 788.065 197.856 791.248 192.495C794.515 187.134 796.777 181.019 798.033 174.151L853.068 174.402C851.644 186.213 848.084 197.605 842.388 208.579C836.775 219.468 829.194 229.227 819.645 237.855C810.179 246.399 798.871 253.184 785.72 258.21C772.652 263.152 757.867 265.624 741.365 265.624C718.413 265.624 697.89 260.43 679.797 250.043C661.787 239.656 647.547 224.62 637.076 204.935C626.689 185.25 621.495 161.418 621.495 133.44C621.495 105.378 626.773 81.5048 637.327 61.8196C647.882 42.1345 662.206 27.1403 680.299 16.837C698.393 6.44997 718.748 1.25644 741.365 1.25644C756.276 1.25644 770.097 3.35061 782.83 7.53893C795.646 11.7273 806.996 17.8422 816.881 25.8838C826.765 33.8416 834.807 43.6004 841.005 55.1602C847.288 66.72 851.309 79.9551 853.068 94.8655ZM931.599 262.105H873.297L962.132 4.77464H1032.24L1120.95 262.105H1062.65L998.193 63.5787H996.183L931.599 262.105ZM927.955 160.957H1065.67V203.427H927.955V160.957ZM1151.93 262.105V4.77464H1206.33V217.248H1316.65V262.105H1151.93ZM1352.68 262.105V4.77464H1407.09V217.248H1517.41V262.105H1352.68Z" fill="white"/>
</svg>
