<svg xmlns="http://www.w3.org/2000/svg" width="1352" height="1373" viewBox="0 0 1352 1373" fill="none"><metadata><rdf:RDF xmlns:rdf="http://www.w3.org/1999/02/22-rdf-syntax-ns#" xmlns:dc="http://purl.org/dc/elements/1.1/"><rdf:Description><dc:creator>RealFaviconGenerator</dc:creator><dc:source>https://realfavicongenerator.net</dc:source></rdf:Description></rdf:RDF></metadata><g filter="url(#filter0_di_125_235)">
<path d="M792.18 1351.4C715.05 1312.19 653.475 1275.89 573.104 1225.98C610.697 1193.57 643.753 1167.97 684.91 1144.64L1114.31 901.258L1113.02 654.311L350.139 1092.46C307.037 1078.53 258.425 1048.39 225.046 1018.9V653.987L13.0993 773.895L10.1826 509.773L225.046 389.216L225.694 137.409L454.168 0L465.835 248.891L693.985 116.344C758.476 78.7507 808.384 68.0561 874.819 110.186L1012.23 198.011L461.297 516.902L463.566 763.849L1229.04 321.16L1341.81 393.105L1340.84 1034.45L792.18 1351.72V1351.4Z" fill="black"></path>
</g><defs>
<filter id="filter0_di_125_235" x="0.000138283" y="0" width="1352" height="1372.09" filterUnits="userSpaceOnUse" color-interpolation-filters="sRGB">
<feFlood flood-opacity="0" result="BackgroundImageFix"></feFlood>
<feColorMatrix in="SourceAlpha" type="matrix" values="0 0 0 0 0 0 0 0 0 0 0 0 0 0 0 0 0 0 127 0" result="hardAlpha"></feColorMatrix>
<feOffset dy="10.1825"></feOffset>
<feGaussianBlur stdDeviation="5.09124"></feGaussianBlur>
<feComposite in2="hardAlpha" operator="out"></feComposite>
<feColorMatrix type="matrix" values="0 0 0 0 0 0 0 0 0 0 0 0 0 0 0 0 0 0 0.25 0"></feColorMatrix>
<feBlend mode="normal" in2="BackgroundImageFix" result="effect1_dropShadow_125_235"></feBlend>
<feBlend mode="normal" in="SourceGraphic" in2="effect1_dropShadow_125_235" result="shape"></feBlend>
<feColorMatrix in="SourceAlpha" type="matrix" values="0 0 0 0 0 0 0 0 0 0 0 0 0 0 0 0 0 0 127 0" result="hardAlpha"></feColorMatrix>
<feOffset dy="10.1825"></feOffset>
<feGaussianBlur stdDeviation="5.09124"></feGaussianBlur>
<feComposite in2="hardAlpha" operator="arithmetic" k2="-1" k3="1"></feComposite>
<feColorMatrix type="matrix" values="0 0 0 0 0 0 0 0 0 0 0 0 0 0 0 0 0 0 0.25 0"></feColorMatrix>
<feBlend mode="normal" in2="shape" result="effect2_innerShadow_125_235"></feBlend>
</filter>
</defs></svg>